<svg xmlns="http://www.w3.org/2000/svg" xmlns:xlink="http://www.w3.org/1999/xlink" version="1.1" width="1024" height="768" viewBox="0 0 1024 768" xml:space="preserve">
<desc>Created with Fabric.js 6.7.1</desc>
<defs>
</defs>
<g transform="matrix(1 0 0 1 512.0003 384.0001)">
<path style="stroke: none; stroke-width: 1; stroke-dasharray: none; stroke-linecap: butt; stroke-dashoffset: 0; stroke-linejoin: miter; stroke-miterlimit: 4; fill: rgb(255,255,255); fill-rule: nonzero; opacity: 1;" transform=" translate(-512.0003, -384)" d="M 202.9629 505.2101 C 187.6072 498.7084 173.824 489.4307 161.997 477.606 C 150.1718 465.779 140.8945 451.9935 134.3928 436.6396 C 127.663 420.7299 124.2649 403.8408 124.2649 386.4621 C 124.2649 369.0839 127.663 352.1925 134.3928 336.2851 C 140.8945 320.9312 150.1718 307.1434 161.997 295.3187 C 173.824 283.4935 187.6072 274.2162 202.9629 267.7145 C 218.873 260.9846 235.7617 257.5866 253.1381 257.5866 C 270.5191 257.5866 287.4078 260.9846 303.3179 267.7145 C 318.6736 274.2162 332.4568 283.494 344.282 295.3187 C 356.1112 307.1434 365.3885 320.9312 371.888 336.2851 C 378.6179 352.1925 382.0159 369.0839 382.0159 386.4621 C 382.0159 403.8408 378.6179 420.7299 371.888 436.6396 C 365.3885 451.9935 356.1112 465.7785 344.282 477.606 C 332.4568 489.4307 318.6736 498.7084 303.3179 505.2101 C 287.4078 511.94 270.5191 515.3358 253.1381 515.3358 C 235.7617 515.3358 218.873 511.94 202.9629 505.2101 Z M 198.2578 331.6131 C 183.5885 346.2801 175.5207 365.7498 175.5207 386.4957 C 175.5207 407.2388 183.5885 426.7085 198.2578 441.376 C 212.9271 456.0453 232.3945 464.1131 253.1381 464.1131 C 273.8858 464.1131 293.3537 456.0453 308.023 441.376 C 322.6877 426.7085 330.7601 407.2388 330.7601 386.4957 C 330.7601 365.7498 322.6877 346.2801 308.023 331.6131 C 293.3537 316.9461 273.8504 308.876 253.1381 308.876 C 232.4304 308.876 212.9271 316.9461 198.2578 331.6131 Z M 675.9759 468.2756 L 675.9759 517.273 C 662.5832 517.273 649.1906 514.6598 637.1046 509.4334 C 625.0185 504.5337 614.2391 497.0207 604.7663 487.8745 C 599.8665 482.9748 595.6201 477.7484 592.0269 472.1954 L 621.4254 430.3842 L 635.1447 448.0233 C 644.9442 460.436 659.3167 468.2756 675.9759 468.2756 Z M 675.9758 332.0627 L 675.9758 377.7937 L 640.0443 377.7937 C 638.7377 377.7937 637.1045 378.447 635.4713 380.0802 C 621.0987 391.1863 588.1071 437.8972 568.5081 465.9891 C 565.8949 469.5822 563.2817 473.1754 561.6484 475.7886 C 544.336 501.2672 515.2642 516.2931 484.8858 516.2931 C 472.1465 516.2931 459.7338 514.0066 448.301 509.1068 C 437.5216 504.5337 427.3955 497.3474 418.5759 489.1812 C 410.4097 480.6883 403.8767 470.2355 398.9769 459.1294 C 394.4038 448.0233 391.464 435.9373 391.464 423.198 C 391.464 410.4586 394.4038 398.6993 398.9769 386.9399 C 403.8767 376.1604 410.4097 366.0343 418.5759 357.2148 C 427.3955 349.0485 437.5216 341.8622 448.301 337.6158 C 459.7338 332.716 472.1464 329.7762 484.8858 329.7762 C 499.585 329.7762 514.9375 334.0226 528.3302 340.5556 C 536.4964 345.1287 544.336 351.0084 550.869 357.5414 L 550.5424 357.5414 L 520.4906 392.8196 L 508.0779 385.9599 C 501.2183 381.7135 493.052 378.7736 484.8858 378.7736 C 460.3871 378.7736 440.4614 399.0259 440.4614 423.198 C 440.4614 447.6967 460.3871 467.2957 484.8858 467.2957 C 499.2584 467.2957 512.9777 459.7828 520.8173 448.35 C 534.5365 433.6508 555.1155 403.599 575.3677 377.7937 L 575.3677 289.925 L 624.3652 273.5925 L 624.3652 332.0628 Z M 739.6774 325.5297 L 739.6774 514.0229 L 690.3488 514.0229 L 690.3488 341.864 Z M 819.7053 250.7271 L 819.7053 514.0293 L 770.3775 514.0293 L 770.3775 267.0609 Z M 899.7357 325.5297 L 899.7357 514.0229 L 850.4071 514.0229 L 850.4071 341.864 Z" stroke-linecap="round"/>
</g>
</svg>